HIERARCHY
ROOT Hips
{
	OFFSET 0.000000 0.000000 0.000000 
	CHANNELS 6 Xposition Yposition Zposition Zrotation Yrotation Xrotation
	JOINT LeftUpLeg
	{
		OFFSET 1.363060 -1.794630 0.839290 
		CHANNELS 3 Zrotation Yrotation Xrotation
		JOINT LeftLeg
		{
			OFFSET 2.448110 -6.726130 0.000000 
			CHANNELS 3 Zrotation Yrotation Xrotation
			JOINT LeftFoot
			{
				OFFSET 2.562200 -7.039590 0.000000 
				CHANNELS 3 Zrotation Yrotation Xrotation
				JOINT LeftToeBase
				{
					OFFSET 0.157640 -0.433110 2.322550 
					CHANNELS 3 Zrotation Yrotation Xrotation
					End Site
					{
						OFFSET 0.000000 0.000000 0.000000 
					}
				}
			}
		}
	}
	JOINT RightUpLeg
	{
		OFFSET -1.305520 -1.794630 0.839290 
		CHANNELS 3 Zrotation Yrotation Xrotation
		JOINT RightLeg
		{
			OFFSET -2.542530 -6.985550 0.000000 
			CHANNELS 3 Zrotation Yrotation Xrotation
			JOINT RightFoot
			{
				OFFSET -2.568260 -7.056230 0.000000 
				CHANNELS 3 Zrotation Yrotation Xrotation
				JOINT RightToeBase
				{
					OFFSET -0.164730 -0.452590 2.363150 
					CHANNELS 3 Zrotation Yrotation Xrotation
					End Site
					{
						OFFSET 0.000000 0.000000 0.000000 
					}
				}
			}
		}
	}
	JOINT Spine
	{
		OFFSET 0.028270 2.035590 -0.193380 
		CHANNELS 3 Zrotation Yrotation Xrotation
		JOINT Spine1
		{
			OFFSET 0.056720 2.048850 -0.042750 
			CHANNELS 3 Zrotation Yrotation Xrotation
			JOINT Neck1
			{
				OFFSET -0.054170 1.746240 0.172020 
				CHANNELS 3 Zrotation Yrotation Xrotation
				JOINT Head
				{
					OFFSET 0.104070 1.761360 -0.123970 
					CHANNELS 3 Zrotation Yrotation Xrotation
					End Site
					{
						OFFSET 0.000000 0.000000 0.000000 
					}
				}
			}
			JOINT LeftArm
			{
				OFFSET 3.362410 1.200890 -0.311210 
				CHANNELS 3 Zrotation Yrotation Xrotation
				JOINT LeftForeArm
				{
					OFFSET 4.983000 -0.000000 -0.000000 
					CHANNELS 3 Zrotation Yrotation Xrotation
					JOINT LeftHand
					{
						OFFSET 3.483560 -0.000000 -0.000000 
						CHANNELS 3 Zrotation Yrotation Xrotation
						JOINT LeftHandIndex1
						{
							OFFSET 0.715260 -0.000000 -0.000000 
							CHANNELS 3 Zrotation Yrotation Xrotation
							End Site
							{
								OFFSET 0.000000 0.000000 0.000000 
							}
						}
					}
				}
			}
			JOINT RightArm
			{
				OFFSET -3.136600 1.374050 -0.404650 
				CHANNELS 3 Zrotation Yrotation Xrotation
				JOINT RightForeArm
				{
					OFFSET -5.241900 -0.000000 -0.000000 
					CHANNELS 3 Zrotation Yrotation Xrotation
					JOINT RightHand
					{
						OFFSET -3.444170 -0.000000 -0.000000 
						CHANNELS 3 Zrotation Yrotation Xrotation
						JOINT RightHandIndex1
						{
							OFFSET -0.622530 -0.000000 -0.000000 
							CHANNELS 3 Zrotation Yrotation Xrotation
							End Site
							{
								OFFSET 0.000000 0.000000 0.000000 
							}
						}
					}
				}
			}
		}
	}
}
MOTION
Frames: 12
Frame Time: 0.041667
9.788272 18.094690 -1.056565 2.892820 -23.336517 -2.592398 -15.109620 -3.925292 -13.406971 -1.296070 4.837145 14.984967 -4.740532 19.878100 2.303262 0.258700 -3.272600 -9.038700 19.184267 -2.039276 -1.712950 0.230772 -4.244786 17.126575 2.075507 -14.240143 -15.266036 -0.005900 -0.495400 1.361300 1.579873 1.766262 0.101492 1.030149 0.909227 0.729252 -3.049503 9.014770 -0.288241 -0.892600 4.306600 2.153900 -88.969323 0.531617 13.391683 19.217926 -30.891588 -5.398760 -0.155542 1.214904 -26.690980 -7.125000 0.000000 0.000000 70.233249 2.764500 37.285749 -18.085775 29.934118 -4.679502 -0.137231 -0.537767 -15.831643 7.125000 0.000000 0.000000 
9.787459 18.103942 -1.058293 3.692700 -23.391069 -2.955355 -15.875245 -3.737179 -12.936826 -1.401927 4.513308 14.187558 -4.756510 20.046560 2.324854 0.145800 -2.460600 -6.780500 18.368754 -1.893335 -2.144165 0.136129 -4.524230 17.833586 1.984518 -13.920386 -15.562492 -0.001900 -0.277900 0.763700 1.340907 1.775138 0.098701 1.144377 0.893395 0.686410 -2.831889 8.959973 -0.004740 -0.842900 4.280400 2.263800 -88.610499 0.347941 13.472186 19.658477 -31.370421 -5.590411 -0.130332 1.188873 -26.451399 -7.125000 0.000000 0.000000 70.135015 3.093536 37.427165 -18.591602 30.515144 -4.897952 -0.140940 -0.541613 -15.785945 7.125000 0.000000 0.000000 
9.790916 18.103231 -1.065614 3.687867 -23.532702 -3.060035 -15.856928 -3.682648 -12.916604 -1.390889 4.549477 14.307555 -4.774001 20.038975 1.878383 0.086500 -1.896600 -5.219900 18.391439 -1.741462 -1.914713 0.161895 -4.459793 17.661604 1.985114 -13.933107 -15.577339 -0.001500 -0.251600 0.691300 1.349366 1.820477 0.151998 1.179668 0.914793 0.683857 -3.193312 8.867525 0.284395 -0.976500 4.224200 2.428300 -88.340524 0.013471 14.072504 20.097131 -31.852081 -5.784127 -0.133331 1.176441 -26.723851 -7.125000 0.000000 0.000000 69.756082 3.561610 37.546950 -19.091099 31.079337 -5.121628 -0.142066 -0.544951 -15.913091 7.125000 0.000000 0.000000 
9.794678 18.107806 -1.076492 3.049716 -23.901280 -2.888802 -15.163030 -3.544545 -12.855236 -1.421456 4.469793 14.043461 -4.868805 20.255988 1.517479 0.027200 -1.064800 -2.927200 19.075450 -1.434012 -1.818676 0.147849 -4.509463 17.829571 1.977497 -13.965651 -15.637564 -0.001800 -0.276100 0.758700 1.478260 1.947041 0.170959 0.981861 0.988772 0.625488 -3.403524 8.864724 0.459031 -1.057500 4.217500 2.520000 -87.937732 -0.324224 14.882926 20.531939 -32.329320 -5.987418 -0.175139 1.181640 -27.156384 -7.125000 0.000000 0.000000 69.351641 3.938878 37.773873 -19.758735 31.816623 -5.420480 -0.132542 -0.553406 -16.275943 7.125000 0.000000 0.000000 
9.800676 18.108721 -1.083914 2.976811 -24.315367 -2.830312 -15.025081 -3.485398 -12.948307 -1.422480 4.490338 14.112717 -4.904550 20.269934 0.786501 0.000800 -0.186300 -0.511900 19.131262 -1.338970 -1.890005 0.157077 -4.490108 17.753797 2.031652 -13.997883 -15.135795 0.000000 0.008800 -0.024200 1.439884 2.072499 0.164089 0.850410 1.056047 0.640295 -3.990732 8.774108 0.705900 -1.293800 4.160800 2.656700 -87.416745 -0.664034 15.555939 21.170253 -33.009424 -6.285857 -0.232903 1.175596 -27.471556 -7.125000 0.000000 0.000000 69.069313 4.345352 38.188749 -20.492972 32.614817 -5.757112 -0.118150 -0.566814 -16.593986 7.125000 0.000000 0.000000 
9.810843 18.100587 -1.086558 3.288458 -24.475825 -3.013586 -15.330142 -3.501221 -12.853266 -1.427416 4.485747 14.160995 -4.891877 20.197769 0.228842 0.000200 0.093300 0.256500 18.755983 -1.398614 -1.907906 0.151415 -4.494175 17.739620 2.051398 -13.909309 -14.741149 -0.000100 0.051200 -0.140700 1.353923 2.057507 0.211183 0.865004 1.045464 0.742088 -4.669516 8.670189 0.755884 -1.543400 4.095800 2.719000 -87.052445 -1.020917 16.043440 22.062395 -33.941637 -6.709652 -0.291822 1.157985 -27.868641 -7.125000 0.000000 0.000000 68.720617 4.890273 38.667649 -21.170703 33.334877 -6.077984 -0.107112 -0.578637 -16.754959 7.125000 0.000000 0.000000 
9.821519 18.099774 -1.090218 3.276066 -24.459740 -3.102861 -15.375243 -3.407034 -12.687030 -1.439253 4.413837 13.939908 -4.929526 20.427782 0.912255 0.012600 -0.723700 -1.988900 18.730255 -1.409500 -1.923903 0.117626 -4.576409 17.977508 1.996433 -13.736653 -14.904352 -0.002400 -0.316100 0.868600 1.336672 1.985269 0.266659 0.722167 1.012354 0.815773 -3.685006 8.798539 0.280416 -1.178800 4.181400 2.477700 -86.812048 -1.353955 16.410396 22.978015 -34.888295 -7.171815 -0.319582 1.150633 -28.280766 -7.125000 0.000000 0.000000 68.346927 5.327293 38.913907 -21.959192 34.152894 -6.459066 -0.097156 -0.587747 -17.021233 7.125000 0.000000 0.000000 
9.829653 18.102621 -1.095912 3.360983 -24.415537 -3.128161 -15.467866 -3.437404 -12.645405 -1.440118 4.383259 13.816420 -4.948019 20.630001 1.760239 0.065900 -1.656500 -4.557400 18.641358 -1.345297 -2.056055 0.098334 -4.640244 18.142582 1.983815 -13.749845 -15.094161 -0.000300 -0.107900 0.296500 1.308395 1.912764 0.287800 0.682579 0.974788 0.849277 -3.079581 8.901750 0.323224 -0.976100 4.241800 2.490900 -86.521202 -1.681047 16.969918 23.778628 -35.699061 -7.588411 -0.299364 1.144363 -28.765555 -7.125000 0.000000 0.000000 67.866165 5.706919 39.219309 -22.794018 35.006001 -6.872319 -0.087794 -0.594403 -17.532470 7.125000 0.000000 0.000000 
9.835041 18.095199 -1.099673 3.625074 -24.448420 -3.241801 -15.684107 -3.624978 -12.602789 -1.433652 4.408742 13.908207 -4.958806 20.677207 1.612762 0.069100 -1.695500 -4.665000 18.377006 -1.269536 -2.080077 0.099794 -4.648048 18.149187 1.963669 -13.717999 -15.272539 -0.000300 0.108800 -0.298900 1.292064 1.851997 0.288323 0.898661 0.935924 0.848921 -4.531317 8.766883 0.955009 -1.523800 4.142700 2.848600 -86.193557 -1.973524 17.855904 24.443430 -36.355063 -7.935386 -0.275684 1.135686 -29.481720 -7.125000 0.000000 0.000000 67.160995 6.089935 39.835255 -23.659657 35.873738 -7.312192 -0.080031 -0.599812 -18.231009 7.125000 0.000000 0.000000 
9.842870 18.088590 -1.102215 3.556147 -24.571742 -3.250329 -15.626375 -3.532167 -12.587218 -1.439158 4.388466 13.849824 -4.968067 20.702037 1.597994 0.067700 -1.679000 -4.619500 18.433427 -1.202356 -2.066685 0.082327 -4.692675 18.287536 1.881733 -13.452747 -15.478128 -0.000300 -0.105200 0.289000 1.342240 1.811813 0.256364 0.973037 0.916003 0.814292 -5.773164 8.618819 1.264663 -1.990400 4.044500 3.009400 -85.941670 -2.069230 18.521191 25.281108 -37.162595 -8.383435 -0.279487 1.128031 -30.038095 -7.125000 0.000000 0.000000 66.509379 6.429106 40.360090 -24.550958 36.739468 -7.774768 -0.071164 -0.605427 -18.717855 7.125000 0.000000 0.000000 
9.847445 18.093470 -1.105774 3.367975 -24.784679 -3.268583 -15.485750 -3.164156 -12.550835 -1.449059 4.328022 13.662480 -4.970452 20.750273 1.980388 0.103500 -2.075000 -5.712900 18.630251 -1.006035 -2.031877 0.055251 -4.766484 18.504721 1.837363 -13.301760 -15.545013 -0.001000 0.201300 -0.553000 1.390782 1.824357 0.278178 0.911195 0.924151 0.813694 -5.733995 8.609710 1.471759 -1.962500 4.038100 3.069400 -85.658703 -2.158730 18.860082 26.303552 -38.118516 -8.941500 -0.304671 1.112221 -30.201904 -7.125000 0.000000 0.000000 66.020928 6.801402 40.710487 -25.457133 37.597742 -8.257869 -0.059370 -0.611914 -19.188445 7.125000 0.000000 0.000000 
9.849580 18.094995 -1.107909 3.775746 -25.003893 -3.574253 -15.900029 -2.947240 -12.362451 -1.456497 4.271603 13.549738 -4.987617 20.885200 2.072434 0.107900 -2.117700 -5.831200 18.211188 -0.870590 -2.044158 0.033565 -4.830060 18.651243 1.820145 -13.187696 -15.499401 -0.018400 0.874700 -2.404000 1.286239 1.900445 0.351277 0.962199 0.952699 0.837620 -5.425909 8.665808 1.747944 -1.847600 4.065300 3.199000 -85.208754 -2.468516 19.399341 27.144167 -38.881522 -9.409290 -0.318054 1.094596 -30.175337 -7.125000 0.000000 0.000000 65.601379 7.195967 40.997561 -26.443850 38.515318 -8.805313 -0.048287 -0.620281 -19.774675 7.125000 0.000000 0.000000 
